{
    "asset": {
        "version": "2.0",
        "generator": "Open Asset Import Library (assimp v6.0.0)"
    },
    "extensionsUsed": [
        "KHR_materials_specular",
        "KHR_materials_volume",
        "KHR_materials_ior",
        "FB_ngon_encoding"
    ],
    "accessors": [
        {
            "bufferView": 0,
            "byteOffset": 0,
            "componentType": 5126,
            "count": 1215,
            "type": "VEC3",
            "max": [
                1040.481201171875,
                1040.481201171875,
                70.86614227294922
            ],
            "min": [
                -0.048309504985809326,
                -0.048309504985809326,
                0.0
            ]
        },
        {
            "bufferView": 1,
            "byteOffset": 0,
            "componentType": 5126,
            "count": 1215,
            "type": "VEC3",
            "max": [
                0.9999247193336487,
                0.9999247193336487,
                1.0
            ],
            "min": [
                -1.0,
                -1.0,
                -1.0
            ]
        },
        {
            "bufferView": 2,
            "byteOffset": 0,
            "componentType": 5125,
            "count": 5964,
            "type": "SCALAR",
            "max": [
                1214
            ],
            "min": [
                0
            ]
        },
        {
            "bufferView": 3,
            "byteOffset": 0,
            "componentType": 5126,
            "count": 1215,
            "type": "VEC3",
            "max": [
                1890.8748779296875,
                1890.8748779296875,
                70.86614227294922
            ],
            "min": [
                -0.048309504985809326,
                -0.048309504985809326,
                0.0
            ]
        },
        {
            "bufferView": 4,
            "byteOffset": 0,
            "componentType": 5126,
            "count": 1215,
            "type": "VEC3",
            "max": [
                0.9999247193336487,
                0.9999247193336487,
                1.0
            ],
            "min": [
                -1.0,
                -1.0,
                -1.0
            ]
        },
        {
            "bufferView": 5,
            "byteOffset": 0,
            "componentType": 5125,
            "count": 5964,
            "type": "SCALAR",
            "max": [
                1214
            ],
            "min": [
                0
            ]
        },
        {
            "bufferView": 6,
            "byteOffset": 0,
            "componentType": 5126,
            "count": 262,
            "type": "VEC3",
            "max": [
                1796.38671875,
                1796.38671875,
                0.0
            ],
            "min": [
                2.2250738585072014e-308,
                2.2250738585072014e-308,
                0.0
            ]
        },
        {
            "bufferView": 7,
            "byteOffset": 0,
            "componentType": 5126,
            "count": 262,
            "type": "VEC3",
            "max": [
                0.0,
                0.0,
                1.0
            ],
            "min": [
                0.0,
                0.0,
                -1.0
            ]
        },
        {
            "bufferView": 8,
            "byteOffset": 0,
            "componentType": 5125,
            "count": 774,
            "type": "SCALAR",
            "max": [
                261
            ],
            "min": [
                0
            ]
        },
        {
            "bufferView": 9,
            "byteOffset": 0,
            "componentType": 5126,
            "count": 260,
            "type": "VEC3",
            "max": [
                1115.7415771484375,
                1115.7415771484375,
                0.0
            ],
            "min": [
                2.2250738585072014e-308,
                2.2250738585072014e-308,
                0.0
            ]
        },
        {
            "bufferView": 10,
            "byteOffset": 0,
            "componentType": 5126,
            "count": 260,
            "type": "VEC3",
            "max": [
                0.0,
                0.0,
                1.0
            ],
            "min": [
                0.0,
                0.0,
                -1.0
            ]
        },
        {
            "bufferView": 11,
            "byteOffset": 0,
            "componentType": 5125,
            "count": 768,
            "type": "SCALAR",
            "max": [
                259
            ],
            "min": [
                0
            ]
        },
        {
            "bufferView": 12,
            "byteOffset": 0,
            "componentType": 5126,
            "count": 262,
            "type": "VEC3",
            "max": [
                1719.0428466796875,
                1720.2725830078125,
                0.0
            ],
            "min": [
                2.2250738585072014e-308,
                2.2250738585072014e-308,
                0.0
            ]
        },
        {
            "bufferView": 13,
            "byteOffset": 0,
            "componentType": 5126,
            "count": 262,
            "type": "VEC3",
            "max": [
                0.0,
                0.0,
                1.0
            ],
            "min": [
                0.0,
                0.0,
                -1.0
            ]
        },
        {
            "bufferView": 14,
            "byteOffset": 0,
            "componentType": 5125,
            "count": 774,
            "type": "SCALAR",
            "max": [
                261
            ],
            "min": [
                0
            ]
        }
    ],
    "buffers": [
        {
            "byteLength": 134112,
            "uri": "corner2x.bin"
        }
    ],
    "bufferViews": [
        {
            "buffer": 0,
            "byteOffset": 0,
            "byteLength": 14580,
            "target": 34962
        },
        {
            "buffer": 0,
            "byteOffset": 14580,
            "byteLength": 14580,
            "target": 34962
        },
        {
            "buffer": 0,
            "byteOffset": 29160,
            "byteLength": 23856,
            "target": 34963
        },
        {
            "buffer": 0,
            "byteOffset": 53016,
            "byteLength": 14580,
            "target": 34962
        },
        {
            "buffer": 0,
            "byteOffset": 67596,
            "byteLength": 14580,
            "target": 34962
        },
        {
            "buffer": 0,
            "byteOffset": 82176,
            "byteLength": 23856,
            "target": 34963
        },
        {
            "buffer": 0,
            "byteOffset": 106032,
            "byteLength": 3144,
            "target": 34962
        },
        {
            "buffer": 0,
            "byteOffset": 109176,
            "byteLength": 3144,
            "target": 34962
        },
        {
            "buffer": 0,
            "byteOffset": 112320,
            "byteLength": 3096,
            "target": 34963
        },
        {
            "buffer": 0,
            "byteOffset": 115416,
            "byteLength": 3120,
            "target": 34962
        },
        {
            "buffer": 0,
            "byteOffset": 118536,
            "byteLength": 3120,
            "target": 34962
        },
        {
            "buffer": 0,
            "byteOffset": 121656,
            "byteLength": 3072,
            "target": 34963
        },
        {
            "buffer": 0,
            "byteOffset": 124728,
            "byteLength": 3144,
            "target": 34962
        },
        {
            "buffer": 0,
            "byteOffset": 127872,
            "byteLength": 3144,
            "target": 34962
        },
        {
            "buffer": 0,
            "byteOffset": 131016,
            "byteLength": 3096,
            "target": 34963
        }
    ],
    "materials": [
        {
            "name": "material_1",
            "pbrMetallicRoughness": {
                "baseColorFactor": [
                    0.09803921729326248,
                    0.20000000298023224,
                    0.0,
                    1.0
                ],
                "metallicFactor": 0.0,
                "roughnessFactor": 0.9599999785423279
            },
            "extensions": {
                "KHR_materials_specular": {
                    "specularFactor": 1.0,
                    "specularColorFactor": [
                        0.4000000059604645,
                        0.4000000059604645,
                        0.4000000059604645
                    ]
                },
                "KHR_materials_ior": {
                    "ior": 1.0
                }
            }
        },
        {
            "name": "material_0_material",
            "pbrMetallicRoughness": {
                "baseColorFactor": [
                    0.11764705926179886,
                    0.11764705926179886,
                    0.11764705926179886,
                    1.0
                ],
                "metallicFactor": 0.0,
                "roughnessFactor": 0.9599999785423279
            },
            "extensions": {
                "KHR_materials_specular": {
                    "specularFactor": 1.0,
                    "specularColorFactor": [
                        0.4000000059604645,
                        0.4000000059604645,
                        0.4000000059604645
                    ]
                },
                "KHR_materials_ior": {
                    "ior": 1.0
                }
            }
        },
        {
            "name": "material_2_material",
            "pbrMetallicRoughness": {
                "baseColorFactor": [
                    0.4470588266849518,
                    0.4470588266849518,
                    0.4470588266849518,
                    1.0
                ],
                "metallicFactor": 0.0,
                "roughnessFactor": 0.9599999785423279
            },
            "extensions": {
                "KHR_materials_specular": {
                    "specularFactor": 1.0,
                    "specularColorFactor": [
                        0.4000000059604645,
                        0.4000000059604645,
                        0.4000000059604645
                    ]
                },
                "KHR_materials_ior": {
                    "ior": 1.0
                }
            }
        }
    ],
    "meshes": [
        {
            "name": "ID2",
            "primitives": [
                {
                    "mode": 4,
                    "material": 1,
                    "indices": 2,
                    "attributes": {
                        "POSITION": 0,
                        "NORMAL": 1
                    }
                },
                {
                    "mode": 4,
                    "material": 1,
                    "indices": 5,
                    "attributes": {
                        "POSITION": 3,
                        "NORMAL": 4
                    }
                },
                {
                    "mode": 4,
                    "material": 0,
                    "indices": 8,
                    "attributes": {
                        "POSITION": 6,
                        "NORMAL": 7
                    }
                },
                {
                    "mode": 4,
                    "material": 0,
                    "indices": 11,
                    "attributes": {
                        "POSITION": 9,
                        "NORMAL": 10
                    }
                },
                {
                    "mode": 4,
                    "material": 2,
                    "indices": 14,
                    "attributes": {
                        "POSITION": 12,
                        "NORMAL": 13
                    }
                }
            ]
        }
    ],
    "nodes": [
        {
            "name": "ID1",
            "matrix": [
                0.02539999969303608,
                0.0,
                0.0,
                0.0,
                0.0,
                0.0,
                -0.02539999969303608,
                0.0,
                0.0,
                0.02539999969303608,
                0.0,
                0.0,
                0.0,
                0.0,
                0.0,
                1.0
            ],
            "children": [
                1
            ]
        },
        {
            "name": "$ColladaAutoName$_0",
            "mesh": 0
        }
    ],
    "scenes": [
        {
            "nodes": [
                0
            ]
        }
    ],
    "scene": 0
}