{
    "asset": {
        "version": "2.0",
        "generator": "Open Asset Import Library (assimp v6.0.0)"
    },
    "extensionsUsed": [
        "KHR_materials_specular",
        "KHR_materials_volume",
        "KHR_materials_ior",
        "FB_ngon_encoding"
    ],
    "accessors": [
        {
            "bufferView": 0,
            "byteOffset": 0,
            "componentType": 5126,
            "count": 670,
            "type": "VEC3",
            "max": [
                1889.7637939453125,
                1889.7637939453125,
                71.00509643554688
            ],
            "min": [
                0.0,
                2.2250738585072014e-308,
                0.0
            ]
        },
        {
            "bufferView": 1,
            "byteOffset": 0,
            "componentType": 5126,
            "count": 670,
            "type": "VEC3",
            "max": [
                1.0,
                0.9999054074287415,
                1.0
            ],
            "min": [
                -1.0,
                -1.0,
                -1.0
            ]
        },
        {
            "bufferView": 2,
            "byteOffset": 0,
            "componentType": 5125,
            "count": 2499,
            "type": "SCALAR",
            "max": [
                669
            ],
            "min": [
                0
            ]
        },
        {
            "bufferView": 3,
            "byteOffset": 0,
            "componentType": 5126,
            "count": 55,
            "type": "VEC3",
            "max": [
                1889.7637939453125,
                1889.7637939453125,
                0.0
            ],
            "min": [
                0.0,
                2.2250738585072014e-308,
                0.0
            ]
        },
        {
            "bufferView": 4,
            "byteOffset": 0,
            "componentType": 5126,
            "count": 55,
            "type": "VEC3",
            "max": [
                0.0,
                0.0,
                1.0
            ],
            "min": [
                0.0,
                0.0,
                2.2250738585072014e-308
            ]
        },
        {
            "bufferView": 5,
            "byteOffset": 0,
            "componentType": 5125,
            "count": 159,
            "type": "SCALAR",
            "max": [
                54
            ],
            "min": [
                0
            ]
        },
        {
            "bufferView": 6,
            "byteOffset": 0,
            "componentType": 5126,
            "count": 629,
            "type": "VEC3",
            "max": [
                1889.7637939453125,
                1039.5133056640625,
                70.93692016601563
            ],
            "min": [
                0.0,
                0.0,
                0.0
            ]
        },
        {
            "bufferView": 7,
            "byteOffset": 0,
            "componentType": 5126,
            "count": 629,
            "type": "VEC3",
            "max": [
                1.0,
                1.0,
                1.0
            ],
            "min": [
                -1.0,
                -0.9999054074287415,
                -1.0
            ]
        },
        {
            "bufferView": 8,
            "byteOffset": 0,
            "componentType": 5125,
            "count": 2541,
            "type": "SCALAR",
            "max": [
                628
            ],
            "min": [
                0
            ]
        },
        {
            "bufferView": 9,
            "byteOffset": 0,
            "componentType": 5126,
            "count": 55,
            "type": "VEC3",
            "max": [
                1889.7637939453125,
                1039.5133056640625,
                0.0
            ],
            "min": [
                0.0,
                0.0,
                0.0
            ]
        },
        {
            "bufferView": 10,
            "byteOffset": 0,
            "componentType": 5126,
            "count": 55,
            "type": "VEC3",
            "max": [
                0.0,
                0.0,
                1.0
            ],
            "min": [
                0.0,
                0.0,
                2.2250738585072014e-308
            ]
        },
        {
            "bufferView": 11,
            "byteOffset": 0,
            "componentType": 5125,
            "count": 159,
            "type": "SCALAR",
            "max": [
                54
            ],
            "min": [
                0
            ]
        },
        {
            "bufferView": 12,
            "byteOffset": 0,
            "componentType": 5126,
            "count": 116,
            "type": "VEC3",
            "max": [
                1889.7637939453125,
                1719.129150390625,
                0.0
            ],
            "min": [
                0.0,
                2.2250738585072014e-308,
                0.0
            ]
        },
        {
            "bufferView": 13,
            "byteOffset": 0,
            "componentType": 5126,
            "count": 116,
            "type": "VEC3",
            "max": [
                0.0,
                0.0,
                1.0
            ],
            "min": [
                0.0,
                0.0,
                -1.0
            ]
        },
        {
            "bufferView": 14,
            "byteOffset": 0,
            "componentType": 5125,
            "count": 336,
            "type": "SCALAR",
            "max": [
                115
            ],
            "min": [
                0
            ]
        },
        {
            "bufferView": 15,
            "byteOffset": 0,
            "componentType": 5126,
            "count": 114,
            "type": "VEC3",
            "max": [
                1889.7637939453125,
                1115.1038818359375,
                0.0
            ],
            "min": [
                0.0,
                2.2250738585072014e-308,
                0.0
            ]
        },
        {
            "bufferView": 16,
            "byteOffset": 0,
            "componentType": 5126,
            "count": 114,
            "type": "VEC3",
            "max": [
                0.0,
                0.0,
                1.0
            ],
            "min": [
                0.0,
                0.0,
                -1.0
            ]
        },
        {
            "bufferView": 17,
            "byteOffset": 0,
            "componentType": 5125,
            "count": 330,
            "type": "SCALAR",
            "max": [
                113
            ],
            "min": [
                0
            ]
        },
        {
            "bufferView": 18,
            "byteOffset": 0,
            "componentType": 5126,
            "count": 114,
            "type": "VEC3",
            "max": [
                1889.7637939453125,
                1794.7197265625,
                0.0
            ],
            "min": [
                0.0,
                2.2250738585072014e-308,
                0.0
            ]
        },
        {
            "bufferView": 19,
            "byteOffset": 0,
            "componentType": 5126,
            "count": 114,
            "type": "VEC3",
            "max": [
                0.0,
                0.0,
                1.0
            ],
            "min": [
                0.0,
                0.0,
                -1.0
            ]
        },
        {
            "bufferView": 20,
            "byteOffset": 0,
            "componentType": 5125,
            "count": 330,
            "type": "SCALAR",
            "max": [
                113
            ],
            "min": [
                0
            ]
        }
    ],
    "buffers": [
        {
            "byteLength": 67488,
            "uri": "s-curve.bin"
        }
    ],
    "bufferViews": [
        {
            "buffer": 0,
            "byteOffset": 0,
            "byteLength": 8040,
            "target": 34962
        },
        {
            "buffer": 0,
            "byteOffset": 8040,
            "byteLength": 8040,
            "target": 34962
        },
        {
            "buffer": 0,
            "byteOffset": 16080,
            "byteLength": 9996,
            "target": 34963
        },
        {
            "buffer": 0,
            "byteOffset": 26076,
            "byteLength": 660,
            "target": 34962
        },
        {
            "buffer": 0,
            "byteOffset": 26736,
            "byteLength": 660,
            "target": 34962
        },
        {
            "buffer": 0,
            "byteOffset": 27396,
            "byteLength": 636,
            "target": 34963
        },
        {
            "buffer": 0,
            "byteOffset": 28032,
            "byteLength": 7548,
            "target": 34962
        },
        {
            "buffer": 0,
            "byteOffset": 35580,
            "byteLength": 7548,
            "target": 34962
        },
        {
            "buffer": 0,
            "byteOffset": 43128,
            "byteLength": 10164,
            "target": 34963
        },
        {
            "buffer": 0,
            "byteOffset": 53292,
            "byteLength": 660,
            "target": 34962
        },
        {
            "buffer": 0,
            "byteOffset": 53952,
            "byteLength": 660,
            "target": 34962
        },
        {
            "buffer": 0,
            "byteOffset": 54612,
            "byteLength": 636,
            "target": 34963
        },
        {
            "buffer": 0,
            "byteOffset": 55248,
            "byteLength": 1392,
            "target": 34962
        },
        {
            "buffer": 0,
            "byteOffset": 56640,
            "byteLength": 1392,
            "target": 34962
        },
        {
            "buffer": 0,
            "byteOffset": 58032,
            "byteLength": 1344,
            "target": 34963
        },
        {
            "buffer": 0,
            "byteOffset": 59376,
            "byteLength": 1368,
            "target": 34962
        },
        {
            "buffer": 0,
            "byteOffset": 60744,
            "byteLength": 1368,
            "target": 34962
        },
        {
            "buffer": 0,
            "byteOffset": 62112,
            "byteLength": 1320,
            "target": 34963
        },
        {
            "buffer": 0,
            "byteOffset": 63432,
            "byteLength": 1368,
            "target": 34962
        },
        {
            "buffer": 0,
            "byteOffset": 64800,
            "byteLength": 1368,
            "target": 34962
        },
        {
            "buffer": 0,
            "byteOffset": 66168,
            "byteLength": 1320,
            "target": 34963
        }
    ],
    "materials": [
        {
            "name": "material_2",
            "pbrMetallicRoughness": {
                "baseColorFactor": [
                    0.4470588266849518,
                    0.4470588266849518,
                    0.4470588266849518,
                    1.0
                ],
                "metallicFactor": 0.0,
                "roughnessFactor": 0.9599999785423279
            },
            "extensions": {
                "KHR_materials_specular": {
                    "specularFactor": 1.0,
                    "specularColorFactor": [
                        0.4000000059604645,
                        0.4000000059604645,
                        0.4000000059604645
                    ]
                },
                "KHR_materials_ior": {
                    "ior": 1.0
                }
            }
        },
        {
            "name": "material_3",
            "pbrMetallicRoughness": {
                "baseColorFactor": [
                    0.09803921729326248,
                    0.20000000298023224,
                    0.0,
                    1.0
                ],
                "metallicFactor": 0.0,
                "roughnessFactor": 0.9599999785423279
            },
            "extensions": {
                "KHR_materials_specular": {
                    "specularFactor": 1.0,
                    "specularColorFactor": [
                        0.4000000059604645,
                        0.4000000059604645,
                        0.4000000059604645
                    ]
                },
                "KHR_materials_ior": {
                    "ior": 1.0
                }
            }
        },
        {
            "name": "material_0_material",
            "pbrMetallicRoughness": {
                "baseColorFactor": [
                    0.11764705926179886,
                    0.11764705926179886,
                    0.11764705926179886,
                    1.0
                ],
                "metallicFactor": 0.0,
                "roughnessFactor": 0.9599999785423279
            },
            "extensions": {
                "KHR_materials_specular": {
                    "specularFactor": 1.0,
                    "specularColorFactor": [
                        0.4000000059604645,
                        0.4000000059604645,
                        0.4000000059604645
                    ]
                },
                "KHR_materials_ior": {
                    "ior": 1.0
                }
            }
        },
        {
            "name": "material_1_material",
            "pbrMetallicRoughness": {
                "metallicFactor": 0.0,
                "roughnessFactor": 0.9599999785423279
            },
            "extensions": {
                "KHR_materials_specular": {
                    "specularFactor": 1.0,
                    "specularColorFactor": [
                        0.4000000059604645,
                        0.4000000059604645,
                        0.4000000059604645
                    ]
                },
                "KHR_materials_ior": {
                    "ior": 1.0
                }
            }
        }
    ],
    "meshes": [
        {
            "name": "ID2",
            "primitives": [
                {
                    "mode": 4,
                    "material": 2,
                    "indices": 2,
                    "attributes": {
                        "POSITION": 0,
                        "NORMAL": 1
                    }
                },
                {
                    "mode": 4,
                    "material": 3,
                    "indices": 5,
                    "attributes": {
                        "POSITION": 3,
                        "NORMAL": 4
                    }
                },
                {
                    "mode": 4,
                    "material": 2,
                    "indices": 8,
                    "attributes": {
                        "POSITION": 6,
                        "NORMAL": 7
                    }
                },
                {
                    "mode": 4,
                    "material": 3,
                    "indices": 11,
                    "attributes": {
                        "POSITION": 9,
                        "NORMAL": 10
                    }
                },
                {
                    "mode": 4,
                    "material": 0,
                    "indices": 14,
                    "attributes": {
                        "POSITION": 12,
                        "NORMAL": 13
                    }
                },
                {
                    "mode": 4,
                    "material": 1,
                    "indices": 17,
                    "attributes": {
                        "POSITION": 15,
                        "NORMAL": 16
                    }
                },
                {
                    "mode": 4,
                    "material": 1,
                    "indices": 20,
                    "attributes": {
                        "POSITION": 18,
                        "NORMAL": 19
                    }
                }
            ]
        }
    ],
    "nodes": [
        {
            "name": "ID1",
            "matrix": [
                0.02539999969303608,
                0.0,
                0.0,
                0.0,
                0.0,
                0.0,
                -0.02539999969303608,
                0.0,
                0.0,
                0.02539999969303608,
                0.0,
                0.0,
                0.0,
                0.0,
                0.0,
                1.0
            ],
            "children": [
                1
            ]
        },
        {
            "name": "$ColladaAutoName$_0",
            "mesh": 0
        }
    ],
    "scenes": [
        {
            "nodes": [
                0
            ]
        }
    ],
    "scene": 0
}