{
    "asset": {
        "version": "2.0",
        "generator": "Open Asset Import Library (assimp v6.0.0)"
    },
    "extensionsUsed": [
        "KHR_materials_specular",
        "KHR_materials_volume",
        "KHR_materials_ior",
        "FB_ngon_encoding"
    ],
    "accessors": [
        {
            "bufferView": 0,
            "byteOffset": 0,
            "componentType": 5126,
            "count": 1323,
            "type": "VEC3",
            "max": [
                82.67715454101563,
                3.937007188796997,
                2.9527554512023926
            ],
            "min": [
                -0.04830949753522873,
                -78.7884521484375,
                0.0
            ]
        },
        {
            "bufferView": 1,
            "byteOffset": 0,
            "componentType": 5126,
            "count": 1323,
            "type": "VEC3",
            "max": [
                0.9999247193336487,
                0.9999247193336487,
                1.0
            ],
            "min": [
                -1.0,
                -1.0,
                -1.0
            ]
        },
        {
            "bufferView": 2,
            "byteOffset": 0,
            "componentType": 5125,
            "count": 5970,
            "type": "SCALAR",
            "max": [
                1322
            ],
            "min": [
                0
            ]
        },
        {
            "bufferView": 3,
            "byteOffset": 0,
            "componentType": 5126,
            "count": 131,
            "type": "VEC3",
            "max": [
                82.67715454101563,
                3.937007188796997,
                0.0
            ],
            "min": [
                0.0,
                -78.74014282226563,
                0.0
            ]
        },
        {
            "bufferView": 4,
            "byteOffset": 0,
            "componentType": 5126,
            "count": 131,
            "type": "VEC3",
            "max": [
                -0.0,
                -0.0,
                1.0
            ],
            "min": [
                -0.0,
                -0.0,
                2.2250738585072014e-308
            ]
        },
        {
            "bufferView": 5,
            "byteOffset": 0,
            "componentType": 5125,
            "count": 387,
            "type": "SCALAR",
            "max": [
                130
            ],
            "min": [
                0
            ]
        },
        {
            "bufferView": 6,
            "byteOffset": 0,
            "componentType": 5126,
            "count": 1321,
            "type": "VEC3",
            "max": [
                118.11021423339844,
                39.37007141113281,
                2.9527554512023926
            ],
            "min": [
                -0.04830949753522873,
                -78.7884521484375,
                0.0
            ]
        },
        {
            "bufferView": 7,
            "byteOffset": 0,
            "componentType": 5126,
            "count": 1321,
            "type": "VEC3",
            "max": [
                0.9999247193336487,
                0.9999247193336487,
                1.0
            ],
            "min": [
                -1.0,
                -1.0,
                -1.0
            ]
        },
        {
            "bufferView": 8,
            "byteOffset": 0,
            "componentType": 5125,
            "count": 5976,
            "type": "SCALAR",
            "max": [
                1320
            ],
            "min": [
                0
            ]
        },
        {
            "bufferView": 9,
            "byteOffset": 0,
            "componentType": 5126,
            "count": 132,
            "type": "VEC3",
            "max": [
                118.11021423339844,
                39.37007141113281,
                0.0
            ],
            "min": [
                0.0,
                -78.74014282226563,
                0.0
            ]
        },
        {
            "bufferView": 10,
            "byteOffset": 0,
            "componentType": 5126,
            "count": 132,
            "type": "VEC3",
            "max": [
                -0.0,
                -0.0,
                1.0
            ],
            "min": [
                -0.0,
                -0.0,
                2.2250738585072014e-308
            ]
        },
        {
            "bufferView": 11,
            "byteOffset": 0,
            "componentType": 5125,
            "count": 390,
            "type": "SCALAR",
            "max": [
                131
            ],
            "min": [
                0
            ]
        },
        {
            "bufferView": 12,
            "byteOffset": 0,
            "componentType": 5126,
            "count": 266,
            "type": "VEC3",
            "max": [
                110.98992919921875,
                32.24978256225586,
                0.0
            ],
            "min": [
                0.0,
                -78.74014282226563,
                0.0
            ]
        },
        {
            "bufferView": 13,
            "byteOffset": 0,
            "componentType": 5126,
            "count": 266,
            "type": "VEC3",
            "max": [
                -0.0,
                -0.0,
                1.0
            ],
            "min": [
                -0.0,
                -0.0,
                -1.0
            ]
        },
        {
            "bufferView": 14,
            "byteOffset": 0,
            "componentType": 5125,
            "count": 786,
            "type": "SCALAR",
            "max": [
                265
            ],
            "min": [
                0
            ]
        },
        {
            "bufferView": 15,
            "byteOffset": 0,
            "componentType": 5126,
            "count": 264,
            "type": "VEC3",
            "max": [
                85.8011474609375,
                7.061000823974609,
                0.0
            ],
            "min": [
                0.0,
                -78.74014282226563,
                0.0
            ]
        },
        {
            "bufferView": 16,
            "byteOffset": 0,
            "componentType": 5126,
            "count": 264,
            "type": "VEC3",
            "max": [
                -0.0,
                -0.0,
                1.0
            ],
            "min": [
                -0.0,
                -0.0,
                -1.0
            ]
        },
        {
            "bufferView": 17,
            "byteOffset": 0,
            "componentType": 5125,
            "count": 780,
            "type": "SCALAR",
            "max": [
                263
            ],
            "min": [
                0
            ]
        },
        {
            "bufferView": 18,
            "byteOffset": 0,
            "componentType": 5126,
            "count": 266,
            "type": "VEC3",
            "max": [
                114.17321014404297,
                35.43306350708008,
                0.0
            ],
            "min": [
                0.0,
                -78.74014282226563,
                0.0
            ]
        },
        {
            "bufferView": 19,
            "byteOffset": 0,
            "componentType": 5126,
            "count": 266,
            "type": "VEC3",
            "max": [
                -0.0,
                -0.0,
                1.0
            ],
            "min": [
                -0.0,
                -0.0,
                -1.0
            ]
        },
        {
            "bufferView": 20,
            "byteOffset": 0,
            "componentType": 5125,
            "count": 786,
            "type": "SCALAR",
            "max": [
                265
            ],
            "min": [
                0
            ]
        },
        {
            "bufferView": 21,
            "byteOffset": 0,
            "componentType": 5126,
            "count": 2,
            "type": "VEC3",
            "max": [
                110.98471069335938,
                -75.59053802490234,
                0.0
            ],
            "min": [
                2.2250738585072014e-308,
                -75.59053802490234,
                0.0
            ]
        },
        {
            "bufferView": 22,
            "byteOffset": 0,
            "componentType": 5125,
            "count": 2,
            "type": "SCALAR",
            "max": [
                1
            ],
            "min": [
                0
            ]
        }
    ],
    "buffers": [
        {
            "byteLength": 149204,
            "uri": "corner3x.bin"
        }
    ],
    "bufferViews": [
        {
            "buffer": 0,
            "byteOffset": 0,
            "byteLength": 15876,
            "target": 34962
        },
        {
            "buffer": 0,
            "byteOffset": 15876,
            "byteLength": 15876,
            "target": 34962
        },
        {
            "buffer": 0,
            "byteOffset": 31752,
            "byteLength": 23880,
            "target": 34963
        },
        {
            "buffer": 0,
            "byteOffset": 55632,
            "byteLength": 1572,
            "target": 34962
        },
        {
            "buffer": 0,
            "byteOffset": 57204,
            "byteLength": 1572,
            "target": 34962
        },
        {
            "buffer": 0,
            "byteOffset": 58776,
            "byteLength": 1548,
            "target": 34963
        },
        {
            "buffer": 0,
            "byteOffset": 60324,
            "byteLength": 15852,
            "target": 34962
        },
        {
            "buffer": 0,
            "byteOffset": 76176,
            "byteLength": 15852,
            "target": 34962
        },
        {
            "buffer": 0,
            "byteOffset": 92028,
            "byteLength": 23904,
            "target": 34963
        },
        {
            "buffer": 0,
            "byteOffset": 115932,
            "byteLength": 1584,
            "target": 34962
        },
        {
            "buffer": 0,
            "byteOffset": 117516,
            "byteLength": 1584,
            "target": 34962
        },
        {
            "buffer": 0,
            "byteOffset": 119100,
            "byteLength": 1560,
            "target": 34963
        },
        {
            "buffer": 0,
            "byteOffset": 120660,
            "byteLength": 3192,
            "target": 34962
        },
        {
            "buffer": 0,
            "byteOffset": 123852,
            "byteLength": 3192,
            "target": 34962
        },
        {
            "buffer": 0,
            "byteOffset": 127044,
            "byteLength": 3144,
            "target": 34963
        },
        {
            "buffer": 0,
            "byteOffset": 130188,
            "byteLength": 3168,
            "target": 34962
        },
        {
            "buffer": 0,
            "byteOffset": 133356,
            "byteLength": 3168,
            "target": 34962
        },
        {
            "buffer": 0,
            "byteOffset": 136524,
            "byteLength": 3120,
            "target": 34963
        },
        {
            "buffer": 0,
            "byteOffset": 139644,
            "byteLength": 3192,
            "target": 34962
        },
        {
            "buffer": 0,
            "byteOffset": 142836,
            "byteLength": 3192,
            "target": 34962
        },
        {
            "buffer": 0,
            "byteOffset": 146028,
            "byteLength": 3144,
            "target": 34963
        },
        {
            "buffer": 0,
            "byteOffset": 149172,
            "byteLength": 24,
            "target": 34962
        },
        {
            "buffer": 0,
            "byteOffset": 149196,
            "byteLength": 8,
            "target": 34963
        }
    ],
    "materials": [
        {
            "name": "material_2",
            "pbrMetallicRoughness": {
                "baseColorFactor": [
                    0.4470588266849518,
                    0.4470588266849518,
                    0.4470588266849518,
                    1.0
                ],
                "metallicFactor": 0.0,
                "roughnessFactor": 0.9599999785423279
            },
            "extensions": {
                "KHR_materials_specular": {
                    "specularFactor": 1.0,
                    "specularColorFactor": [
                        0.4000000059604645,
                        0.4000000059604645,
                        0.4000000059604645
                    ]
                },
                "KHR_materials_ior": {
                    "ior": 1.0
                }
            }
        },
        {
            "name": "material_3",
            "pbrMetallicRoughness": {
                "baseColorFactor": [
                    0.09803921729326248,
                    0.20000000298023224,
                    0.0,
                    1.0
                ],
                "metallicFactor": 0.0,
                "roughnessFactor": 0.9599999785423279
            },
            "extensions": {
                "KHR_materials_specular": {
                    "specularFactor": 1.0,
                    "specularColorFactor": [
                        0.4000000059604645,
                        0.4000000059604645,
                        0.4000000059604645
                    ]
                },
                "KHR_materials_ior": {
                    "ior": 1.0
                }
            }
        },
        {
            "name": "material_0_material",
            "pbrMetallicRoughness": {
                "baseColorFactor": [
                    0.11764705926179886,
                    0.11764705926179886,
                    0.11764705926179886,
                    1.0
                ],
                "metallicFactor": 0.0,
                "roughnessFactor": 0.9599999785423279
            },
            "extensions": {
                "KHR_materials_specular": {
                    "specularFactor": 1.0,
                    "specularColorFactor": [
                        0.4000000059604645,
                        0.4000000059604645,
                        0.4000000059604645
                    ]
                },
                "KHR_materials_ior": {
                    "ior": 1.0
                }
            }
        },
        {
            "name": "edge_color303030255",
            "pbrMetallicRoughness": {
                "baseColorFactor": [
                    0.6000000238418579,
                    0.6000000238418579,
                    0.6000000238418579,
                    1.0
                ],
                "metallicFactor": 0.0,
                "roughnessFactor": 0.9599999785423279
            },
            "extensions": {
                "KHR_materials_specular": {
                    "specularFactor": 1.0,
                    "specularColorFactor": [
                        0.4000000059604645,
                        0.4000000059604645,
                        0.4000000059604645
                    ]
                },
                "KHR_materials_ior": {
                    "ior": 1.0
                }
            }
        },
        {
            "name": "material_1_material",
            "pbrMetallicRoughness": {
                "metallicFactor": 0.0,
                "roughnessFactor": 0.9599999785423279
            },
            "extensions": {
                "KHR_materials_specular": {
                    "specularFactor": 1.0,
                    "specularColorFactor": [
                        0.4000000059604645,
                        0.4000000059604645,
                        0.4000000059604645
                    ]
                },
                "KHR_materials_ior": {
                    "ior": 1.0
                }
            }
        }
    ],
    "meshes": [
        {
            "name": "ID2",
            "primitives": [
                {
                    "mode": 4,
                    "material": 2,
                    "indices": 2,
                    "attributes": {
                        "POSITION": 0,
                        "NORMAL": 1
                    }
                },
                {
                    "mode": 4,
                    "material": 4,
                    "indices": 5,
                    "attributes": {
                        "POSITION": 3,
                        "NORMAL": 4
                    }
                },
                {
                    "mode": 4,
                    "material": 2,
                    "indices": 8,
                    "attributes": {
                        "POSITION": 6,
                        "NORMAL": 7
                    }
                },
                {
                    "mode": 4,
                    "material": 4,
                    "indices": 11,
                    "attributes": {
                        "POSITION": 9,
                        "NORMAL": 10
                    }
                },
                {
                    "mode": 4,
                    "material": 0,
                    "indices": 14,
                    "attributes": {
                        "POSITION": 12,
                        "NORMAL": 13
                    }
                },
                {
                    "mode": 4,
                    "material": 1,
                    "indices": 17,
                    "attributes": {
                        "POSITION": 15,
                        "NORMAL": 16
                    }
                },
                {
                    "mode": 4,
                    "material": 1,
                    "indices": 20,
                    "attributes": {
                        "POSITION": 18,
                        "NORMAL": 19
                    }
                },
                {
                    "mode": 1,
                    "material": 3,
                    "indices": 22,
                    "attributes": {
                        "POSITION": 21
                    }
                }
            ]
        }
    ],
    "nodes": [
        {
            "name": "ID1",
            "matrix": [
                0.02539999969303608,
                0.0,
                0.0,
                0.0,
                0.0,
                0.0,
                -0.02539999969303608,
                0.0,
                0.0,
                0.02539999969303608,
                0.0,
                0.0,
                0.0,
                0.0,
                0.0,
                1.0
            ],
            "children": [
                1
            ]
        },
        {
            "name": "$ColladaAutoName$_0",
            "mesh": 0
        }
    ],
    "scenes": [
        {
            "nodes": [
                0
            ]
        }
    ],
    "scene": 0
}