{
    "asset": {
        "version": "2.0",
        "generator": "Open Asset Import Library (assimp v6.0.0)"
    },
    "extensionsUsed": [
        "KHR_materials_specular",
        "KHR_materials_volume",
        "KHR_materials_ior",
        "FB_ngon_encoding"
    ],
    "accessors": [
        {
            "bufferView": 0,
            "byteOffset": 0,
            "componentType": 5126,
            "count": 2422,
            "type": "VEC3",
            "max": [
                43.30707931518555,
                3.937007188796997,
                2.9527554512023926
            ],
            "min": [
                -0.04830949753522873,
                -39.41838073730469,
                2.2250738585072014e-308
            ]
        },
        {
            "bufferView": 1,
            "byteOffset": 0,
            "componentType": 5126,
            "count": 2422,
            "type": "VEC3",
            "max": [
                1.0,
                1.0,
                1.0
            ],
            "min": [
                -1.0,
                -1.0,
                -1.0
            ]
        },
        {
            "bufferView": 2,
            "byteOffset": 0,
            "componentType": 5125,
            "count": 11928,
            "type": "SCALAR",
            "max": [
                2421
            ],
            "min": [
                0
            ]
        },
        {
            "bufferView": 3,
            "byteOffset": 0,
            "componentType": 5126,
            "count": 2390,
            "type": "VEC3",
            "max": [
                78.74014282226563,
                39.37007141113281,
                2.9527554512023926
            ],
            "min": [
                -0.04830949753522873,
                -39.41838073730469,
                2.2250738585072014e-308
            ]
        },
        {
            "bufferView": 4,
            "byteOffset": 0,
            "componentType": 5126,
            "count": 2390,
            "type": "VEC3",
            "max": [
                1.0,
                1.0,
                1.0
            ],
            "min": [
                -1.0,
                -1.0,
                -1.0
            ]
        },
        {
            "bufferView": 5,
            "byteOffset": 0,
            "componentType": 5125,
            "count": 11928,
            "type": "SCALAR",
            "max": [
                2389
            ],
            "min": [
                0
            ]
        },
        {
            "bufferView": 6,
            "byteOffset": 0,
            "componentType": 5126,
            "count": 262,
            "type": "VEC3",
            "max": [
                74.80313873291016,
                35.43306350708008,
                3.1554436208840472e-30
            ],
            "min": [
                2.2250738585072014e-308,
                -39.37007141113281,
                2.2250738585072014e-308
            ]
        },
        {
            "bufferView": 7,
            "byteOffset": 0,
            "componentType": 5126,
            "count": 262,
            "type": "VEC3",
            "max": [
                -0.0,
                -0.0,
                1.0
            ],
            "min": [
                -0.0,
                -0.0,
                -1.0
            ]
        },
        {
            "bufferView": 8,
            "byteOffset": 0,
            "componentType": 5125,
            "count": 774,
            "type": "SCALAR",
            "max": [
                261
            ],
            "min": [
                0
            ]
        },
        {
            "bufferView": 9,
            "byteOffset": 0,
            "componentType": 5126,
            "count": 260,
            "type": "VEC3",
            "max": [
                46.44293212890625,
                7.0728583335876465,
                3.1554436208840472e-30
            ],
            "min": [
                2.2250738585072014e-308,
                -39.37007141113281,
                2.2250738585072014e-308
            ]
        },
        {
            "bufferView": 10,
            "byteOffset": 0,
            "componentType": 5126,
            "count": 260,
            "type": "VEC3",
            "max": [
                -0.0,
                -0.0,
                1.0
            ],
            "min": [
                -0.0,
                -0.0,
                -1.0
            ]
        },
        {
            "bufferView": 11,
            "byteOffset": 0,
            "componentType": 5125,
            "count": 768,
            "type": "SCALAR",
            "max": [
                259
            ],
            "min": [
                0
            ]
        },
        {
            "bufferView": 12,
            "byteOffset": 0,
            "componentType": 5126,
            "count": 262,
            "type": "VEC3",
            "max": [
                71.58047485351563,
                32.26164245605469,
                3.1554436208840472e-30
            ],
            "min": [
                2.2250738585072014e-308,
                -39.37007141113281,
                2.2250738585072014e-308
            ]
        },
        {
            "bufferView": 13,
            "byteOffset": 0,
            "componentType": 5126,
            "count": 262,
            "type": "VEC3",
            "max": [
                -0.0,
                -0.0,
                1.0
            ],
            "min": [
                -0.0,
                -0.0,
                -1.0
            ]
        },
        {
            "bufferView": 14,
            "byteOffset": 0,
            "componentType": 5125,
            "count": 774,
            "type": "SCALAR",
            "max": [
                261
            ],
            "min": [
                0
            ]
        }
    ],
    "buffers": [
        {
            "byteLength": 238992,
            "uri": "corner2x.bin"
        }
    ],
    "bufferViews": [
        {
            "buffer": 0,
            "byteOffset": 0,
            "byteLength": 29064,
            "target": 34962
        },
        {
            "buffer": 0,
            "byteOffset": 29064,
            "byteLength": 29064,
            "target": 34962
        },
        {
            "buffer": 0,
            "byteOffset": 58128,
            "byteLength": 47712,
            "target": 34963
        },
        {
            "buffer": 0,
            "byteOffset": 105840,
            "byteLength": 28680,
            "target": 34962
        },
        {
            "buffer": 0,
            "byteOffset": 134520,
            "byteLength": 28680,
            "target": 34962
        },
        {
            "buffer": 0,
            "byteOffset": 163200,
            "byteLength": 47712,
            "target": 34963
        },
        {
            "buffer": 0,
            "byteOffset": 210912,
            "byteLength": 3144,
            "target": 34962
        },
        {
            "buffer": 0,
            "byteOffset": 214056,
            "byteLength": 3144,
            "target": 34962
        },
        {
            "buffer": 0,
            "byteOffset": 217200,
            "byteLength": 3096,
            "target": 34963
        },
        {
            "buffer": 0,
            "byteOffset": 220296,
            "byteLength": 3120,
            "target": 34962
        },
        {
            "buffer": 0,
            "byteOffset": 223416,
            "byteLength": 3120,
            "target": 34962
        },
        {
            "buffer": 0,
            "byteOffset": 226536,
            "byteLength": 3072,
            "target": 34963
        },
        {
            "buffer": 0,
            "byteOffset": 229608,
            "byteLength": 3144,
            "target": 34962
        },
        {
            "buffer": 0,
            "byteOffset": 232752,
            "byteLength": 3144,
            "target": 34962
        },
        {
            "buffer": 0,
            "byteOffset": 235896,
            "byteLength": 3096,
            "target": 34963
        }
    ],
    "materials": [
        {
            "name": "material_1",
            "pbrMetallicRoughness": {
                "baseColorFactor": [
                    0.09803921729326248,
                    0.20000000298023224,
                    0.0,
                    1.0
                ],
                "metallicFactor": 0.0,
                "roughnessFactor": 0.9599999785423279
            },
            "extensions": {
                "KHR_materials_specular": {
                    "specularFactor": 1.0,
                    "specularColorFactor": [
                        0.4000000059604645,
                        0.4000000059604645,
                        0.4000000059604645
                    ]
                },
                "KHR_materials_ior": {
                    "ior": 1.0
                }
            }
        },
        {
            "name": "material_0_material",
            "pbrMetallicRoughness": {
                "baseColorFactor": [
                    0.11764705926179886,
                    0.11764705926179886,
                    0.11764705926179886,
                    1.0
                ],
                "metallicFactor": 0.0,
                "roughnessFactor": 0.9599999785423279
            },
            "extensions": {
                "KHR_materials_specular": {
                    "specularFactor": 1.0,
                    "specularColorFactor": [
                        0.4000000059604645,
                        0.4000000059604645,
                        0.4000000059604645
                    ]
                },
                "KHR_materials_ior": {
                    "ior": 1.0
                }
            }
        },
        {
            "name": "material_2_material",
            "pbrMetallicRoughness": {
                "baseColorFactor": [
                    0.4470588266849518,
                    0.4470588266849518,
                    0.4470588266849518,
                    1.0
                ],
                "metallicFactor": 0.0,
                "roughnessFactor": 0.9599999785423279
            },
            "extensions": {
                "KHR_materials_specular": {
                    "specularFactor": 1.0,
                    "specularColorFactor": [
                        0.4000000059604645,
                        0.4000000059604645,
                        0.4000000059604645
                    ]
                },
                "KHR_materials_ior": {
                    "ior": 1.0
                }
            }
        }
    ],
    "meshes": [
        {
            "name": "ID2",
            "primitives": [
                {
                    "mode": 4,
                    "material": 1,
                    "indices": 2,
                    "attributes": {
                        "POSITION": 0,
                        "NORMAL": 1
                    }
                },
                {
                    "mode": 4,
                    "material": 1,
                    "indices": 5,
                    "attributes": {
                        "POSITION": 3,
                        "NORMAL": 4
                    }
                },
                {
                    "mode": 4,
                    "material": 0,
                    "indices": 8,
                    "attributes": {
                        "POSITION": 6,
                        "NORMAL": 7
                    }
                },
                {
                    "mode": 4,
                    "material": 0,
                    "indices": 11,
                    "attributes": {
                        "POSITION": 9,
                        "NORMAL": 10
                    }
                },
                {
                    "mode": 4,
                    "material": 2,
                    "indices": 14,
                    "attributes": {
                        "POSITION": 12,
                        "NORMAL": 13
                    }
                }
            ]
        }
    ],
    "nodes": [
        {
            "name": "ID1",
            "matrix": [
                0.02539999969303608,
                0.0,
                0.0,
                0.0,
                0.0,
                0.0,
                -0.02539999969303608,
                0.0,
                0.0,
                0.02539999969303608,
                0.0,
                0.0,
                0.0,
                0.0,
                0.0,
                1.0
            ],
            "children": [
                1
            ]
        },
        {
            "name": "$ColladaAutoName$_0",
            "mesh": 0
        }
    ],
    "scenes": [
        {
            "nodes": [
                0
            ]
        }
    ],
    "scene": 0
}