{
    "asset": {
        "version": "2.0",
        "generator": "Open Asset Import Library (assimp v6.0.0)"
    },
    "extensionsUsed": [
        "KHR_materials_specular",
        "KHR_materials_volume",
        "KHR_materials_ior",
        "FB_ngon_encoding"
    ],
    "accessors": [
        {
            "bufferView": 0,
            "byteOffset": 0,
            "componentType": 5126,
            "count": 683,
            "type": "VEC3",
            "max": [
                78.74014282226563,
                78.74014282226563,
                2.958545446395874
            ],
            "min": [
                0.0,
                2.2250738585072014e-308,
                0.0
            ]
        },
        {
            "bufferView": 1,
            "byteOffset": 0,
            "componentType": 5126,
            "count": 683,
            "type": "VEC3",
            "max": [
                1.0,
                0.9999054074287415,
                1.0
            ],
            "min": [
                -1.0,
                -1.0,
                -1.0
            ]
        },
        {
            "bufferView": 2,
            "byteOffset": 0,
            "componentType": 5125,
            "count": 2532,
            "type": "SCALAR",
            "max": [
                682
            ],
            "min": [
                0
            ]
        },
        {
            "bufferView": 3,
            "byteOffset": 0,
            "componentType": 5126,
            "count": 55,
            "type": "VEC3",
            "max": [
                78.74014282226563,
                78.74014282226563,
                0.0
            ],
            "min": [
                0.0,
                2.2250738585072014e-308,
                0.0
            ]
        },
        {
            "bufferView": 4,
            "byteOffset": 0,
            "componentType": 5126,
            "count": 55,
            "type": "VEC3",
            "max": [
                0.0,
                0.0,
                1.0
            ],
            "min": [
                0.0,
                0.0,
                2.2250738585072014e-308
            ]
        },
        {
            "bufferView": 5,
            "byteOffset": 0,
            "componentType": 5125,
            "count": 159,
            "type": "SCALAR",
            "max": [
                54
            ],
            "min": [
                0
            ]
        },
        {
            "bufferView": 6,
            "byteOffset": 0,
            "componentType": 5126,
            "count": 669,
            "type": "VEC3",
            "max": [
                78.74014282226563,
                43.31304931640625,
                2.955704689025879
            ],
            "min": [
                0.0,
                0.0,
                0.0
            ]
        },
        {
            "bufferView": 7,
            "byteOffset": 0,
            "componentType": 5126,
            "count": 669,
            "type": "VEC3",
            "max": [
                1.0,
                1.0,
                1.0
            ],
            "min": [
                -1.0,
                -0.9999054074287415,
                -1.0
            ]
        },
        {
            "bufferView": 8,
            "byteOffset": 0,
            "componentType": 5125,
            "count": 2661,
            "type": "SCALAR",
            "max": [
                668
            ],
            "min": [
                0
            ]
        },
        {
            "bufferView": 9,
            "byteOffset": 0,
            "componentType": 5126,
            "count": 55,
            "type": "VEC3",
            "max": [
                78.74014282226563,
                43.31304931640625,
                0.0
            ],
            "min": [
                0.0,
                0.0,
                0.0
            ]
        },
        {
            "bufferView": 10,
            "byteOffset": 0,
            "componentType": 5126,
            "count": 55,
            "type": "VEC3",
            "max": [
                0.0,
                0.0,
                1.0
            ],
            "min": [
                0.0,
                0.0,
                2.2250738585072014e-308
            ]
        },
        {
            "bufferView": 11,
            "byteOffset": 0,
            "componentType": 5125,
            "count": 159,
            "type": "SCALAR",
            "max": [
                54
            ],
            "min": [
                0
            ]
        },
        {
            "bufferView": 12,
            "byteOffset": 0,
            "componentType": 5126,
            "count": 116,
            "type": "VEC3",
            "max": [
                78.74014282226563,
                71.63037109375,
                0.0
            ],
            "min": [
                0.0,
                2.2250738585072014e-308,
                0.0
            ]
        },
        {
            "bufferView": 13,
            "byteOffset": 0,
            "componentType": 5126,
            "count": 116,
            "type": "VEC3",
            "max": [
                0.0,
                0.0,
                1.0
            ],
            "min": [
                0.0,
                0.0,
                -1.0
            ]
        },
        {
            "bufferView": 14,
            "byteOffset": 0,
            "componentType": 5125,
            "count": 336,
            "type": "SCALAR",
            "max": [
                115
            ],
            "min": [
                0
            ]
        },
        {
            "bufferView": 15,
            "byteOffset": 0,
            "componentType": 5126,
            "count": 114,
            "type": "VEC3",
            "max": [
                78.74014282226563,
                46.46265411376953,
                0.0
            ],
            "min": [
                0.0,
                2.2250738585072014e-308,
                0.0
            ]
        },
        {
            "bufferView": 16,
            "byteOffset": 0,
            "componentType": 5126,
            "count": 114,
            "type": "VEC3",
            "max": [
                0.0,
                0.0,
                1.0
            ],
            "min": [
                0.0,
                0.0,
                -1.0
            ]
        },
        {
            "bufferView": 17,
            "byteOffset": 0,
            "componentType": 5125,
            "count": 330,
            "type": "SCALAR",
            "max": [
                113
            ],
            "min": [
                0
            ]
        },
        {
            "bufferView": 18,
            "byteOffset": 0,
            "componentType": 5126,
            "count": 114,
            "type": "VEC3",
            "max": [
                78.74014282226563,
                74.77997589111328,
                0.0
            ],
            "min": [
                0.0,
                2.2250738585072014e-308,
                0.0
            ]
        },
        {
            "bufferView": 19,
            "byteOffset": 0,
            "componentType": 5126,
            "count": 114,
            "type": "VEC3",
            "max": [
                0.0,
                0.0,
                1.0
            ],
            "min": [
                0.0,
                0.0,
                -1.0
            ]
        },
        {
            "bufferView": 20,
            "byteOffset": 0,
            "componentType": 5125,
            "count": 330,
            "type": "SCALAR",
            "max": [
                113
            ],
            "min": [
                0
            ]
        },
        {
            "bufferView": 21,
            "byteOffset": 0,
            "componentType": 5126,
            "count": 2,
            "type": "VEC3",
            "max": [
                0.39370009303092957,
                1.4687612056732178,
                2.922328472137451
            ],
            "min": [
                2.2250738585072014e-308,
                2.2250738585072014e-308,
                2.2250738585072014e-308
            ]
        },
        {
            "bufferView": 22,
            "byteOffset": 0,
            "componentType": 5125,
            "count": 2,
            "type": "SCALAR",
            "max": [
                1
            ],
            "min": [
                0
            ]
        }
    ],
    "buffers": [
        {
            "byteLength": 69404,
            "uri": "s-curve.bin"
        }
    ],
    "bufferViews": [
        {
            "buffer": 0,
            "byteOffset": 0,
            "byteLength": 8196,
            "target": 34962
        },
        {
            "buffer": 0,
            "byteOffset": 8196,
            "byteLength": 8196,
            "target": 34962
        },
        {
            "buffer": 0,
            "byteOffset": 16392,
            "byteLength": 10128,
            "target": 34963
        },
        {
            "buffer": 0,
            "byteOffset": 26520,
            "byteLength": 660,
            "target": 34962
        },
        {
            "buffer": 0,
            "byteOffset": 27180,
            "byteLength": 660,
            "target": 34962
        },
        {
            "buffer": 0,
            "byteOffset": 27840,
            "byteLength": 636,
            "target": 34963
        },
        {
            "buffer": 0,
            "byteOffset": 28476,
            "byteLength": 8028,
            "target": 34962
        },
        {
            "buffer": 0,
            "byteOffset": 36504,
            "byteLength": 8028,
            "target": 34962
        },
        {
            "buffer": 0,
            "byteOffset": 44532,
            "byteLength": 10644,
            "target": 34963
        },
        {
            "buffer": 0,
            "byteOffset": 55176,
            "byteLength": 660,
            "target": 34962
        },
        {
            "buffer": 0,
            "byteOffset": 55836,
            "byteLength": 660,
            "target": 34962
        },
        {
            "buffer": 0,
            "byteOffset": 56496,
            "byteLength": 636,
            "target": 34963
        },
        {
            "buffer": 0,
            "byteOffset": 57132,
            "byteLength": 1392,
            "target": 34962
        },
        {
            "buffer": 0,
            "byteOffset": 58524,
            "byteLength": 1392,
            "target": 34962
        },
        {
            "buffer": 0,
            "byteOffset": 59916,
            "byteLength": 1344,
            "target": 34963
        },
        {
            "buffer": 0,
            "byteOffset": 61260,
            "byteLength": 1368,
            "target": 34962
        },
        {
            "buffer": 0,
            "byteOffset": 62628,
            "byteLength": 1368,
            "target": 34962
        },
        {
            "buffer": 0,
            "byteOffset": 63996,
            "byteLength": 1320,
            "target": 34963
        },
        {
            "buffer": 0,
            "byteOffset": 65316,
            "byteLength": 1368,
            "target": 34962
        },
        {
            "buffer": 0,
            "byteOffset": 66684,
            "byteLength": 1368,
            "target": 34962
        },
        {
            "buffer": 0,
            "byteOffset": 68052,
            "byteLength": 1320,
            "target": 34963
        },
        {
            "buffer": 0,
            "byteOffset": 69372,
            "byteLength": 24,
            "target": 34962
        },
        {
            "buffer": 0,
            "byteOffset": 69396,
            "byteLength": 8,
            "target": 34963
        }
    ],
    "materials": [
        {
            "name": "material_2",
            "pbrMetallicRoughness": {
                "baseColorFactor": [
                    0.4470588266849518,
                    0.4470588266849518,
                    0.4470588266849518,
                    1.0
                ],
                "metallicFactor": 0.0,
                "roughnessFactor": 0.9599999785423279
            },
            "extensions": {
                "KHR_materials_specular": {
                    "specularFactor": 1.0,
                    "specularColorFactor": [
                        0.4000000059604645,
                        0.4000000059604645,
                        0.4000000059604645
                    ]
                },
                "KHR_materials_ior": {
                    "ior": 1.0
                }
            }
        },
        {
            "name": "material_3",
            "pbrMetallicRoughness": {
                "baseColorFactor": [
                    0.09803921729326248,
                    0.20000000298023224,
                    0.0,
                    1.0
                ],
                "metallicFactor": 0.0,
                "roughnessFactor": 0.9599999785423279
            },
            "extensions": {
                "KHR_materials_specular": {
                    "specularFactor": 1.0,
                    "specularColorFactor": [
                        0.4000000059604645,
                        0.4000000059604645,
                        0.4000000059604645
                    ]
                },
                "KHR_materials_ior": {
                    "ior": 1.0
                }
            }
        },
        {
            "name": "material_0_material",
            "pbrMetallicRoughness": {
                "baseColorFactor": [
                    0.11764705926179886,
                    0.11764705926179886,
                    0.11764705926179886,
                    1.0
                ],
                "metallicFactor": 0.0,
                "roughnessFactor": 0.9599999785423279
            },
            "extensions": {
                "KHR_materials_specular": {
                    "specularFactor": 1.0,
                    "specularColorFactor": [
                        0.4000000059604645,
                        0.4000000059604645,
                        0.4000000059604645
                    ]
                },
                "KHR_materials_ior": {
                    "ior": 1.0
                }
            }
        },
        {
            "name": "edge_color000255",
            "pbrMetallicRoughness": {
                "baseColorFactor": [
                    0.6000000238418579,
                    0.6000000238418579,
                    0.6000000238418579,
                    1.0
                ],
                "metallicFactor": 0.0,
                "roughnessFactor": 0.9599999785423279
            },
            "extensions": {
                "KHR_materials_specular": {
                    "specularFactor": 1.0,
                    "specularColorFactor": [
                        0.4000000059604645,
                        0.4000000059604645,
                        0.4000000059604645
                    ]
                },
                "KHR_materials_ior": {
                    "ior": 1.0
                }
            }
        },
        {
            "name": "material_1_material",
            "pbrMetallicRoughness": {
                "metallicFactor": 0.0,
                "roughnessFactor": 0.9599999785423279
            },
            "extensions": {
                "KHR_materials_specular": {
                    "specularFactor": 1.0,
                    "specularColorFactor": [
                        0.4000000059604645,
                        0.4000000059604645,
                        0.4000000059604645
                    ]
                },
                "KHR_materials_ior": {
                    "ior": 1.0
                }
            }
        }
    ],
    "meshes": [
        {
            "name": "ID2",
            "primitives": [
                {
                    "mode": 4,
                    "material": 2,
                    "indices": 2,
                    "attributes": {
                        "POSITION": 0,
                        "NORMAL": 1
                    }
                },
                {
                    "mode": 4,
                    "material": 4,
                    "indices": 5,
                    "attributes": {
                        "POSITION": 3,
                        "NORMAL": 4
                    }
                },
                {
                    "mode": 4,
                    "material": 2,
                    "indices": 8,
                    "attributes": {
                        "POSITION": 6,
                        "NORMAL": 7
                    }
                },
                {
                    "mode": 4,
                    "material": 4,
                    "indices": 11,
                    "attributes": {
                        "POSITION": 9,
                        "NORMAL": 10
                    }
                },
                {
                    "mode": 4,
                    "material": 0,
                    "indices": 14,
                    "attributes": {
                        "POSITION": 12,
                        "NORMAL": 13
                    }
                },
                {
                    "mode": 4,
                    "material": 1,
                    "indices": 17,
                    "attributes": {
                        "POSITION": 15,
                        "NORMAL": 16
                    }
                },
                {
                    "mode": 4,
                    "material": 1,
                    "indices": 20,
                    "attributes": {
                        "POSITION": 18,
                        "NORMAL": 19
                    }
                },
                {
                    "mode": 1,
                    "material": 3,
                    "indices": 22,
                    "attributes": {
                        "POSITION": 21
                    }
                }
            ]
        }
    ],
    "nodes": [
        {
            "name": "ID1",
            "matrix": [
                0.02539999969303608,
                0.0,
                0.0,
                0.0,
                0.0,
                0.0,
                -0.02539999969303608,
                0.0,
                0.0,
                0.02539999969303608,
                0.0,
                0.0,
                0.0,
                0.0,
                0.0,
                1.0
            ],
            "children": [
                1
            ]
        },
        {
            "name": "$ColladaAutoName$_0",
            "mesh": 0
        }
    ],
    "scenes": [
        {
            "nodes": [
                0
            ]
        }
    ],
    "scene": 0
}